<svg width="8" height="12" viewBox="0 0 8 12" fill="none" xmlns="http://www.w3.org/2000/svg">
<rect y="11" width="8" height="1" fill="#2D912C"/>
<path d="M4.02951 11L4.03682 11C4.13413 10.9985 4.22871 10.9647 4.3079 10.9032L4.3125 10.8996L4.31117 10.9005C4.34255 10.8785 4.37189 10.8532 4.39878 10.825L4.40634 10.817L7.83176 7.09595C8.05608 6.85228 8.05608 6.45718 7.83176 6.2135L7.82499 6.20627C7.6002 5.96991 7.24164 5.97231 7.0196 6.2135L4.50885 8.94095L4.50885 0.520672C4.50885 0.233104 4.29426 3.75278e-07 4.0296 3.52279e-07L3.96248 3.46411e-07C3.70148 0.00467532 3.49117 0.235978 3.49117 0.520672L3.49117 8.94097L0.980407 6.21351C0.75613 5.96986 0.392533 5.96986 0.168243 6.21351C-0.0560714 6.45716 -0.0560841 6.85227 0.168218 7.09595L3.59391 10.8173L3.60118 10.825C3.62562 10.8506 3.65209 10.8739 3.68029 10.8944L3.68748 10.8996L3.68617 10.8985C3.76849 10.9646 3.86815 11.0002 3.97046 11L4.02951 11Z" fill="#3CC13B"/>
<path d="M4.02951 11L4.03682 11C4.13413 10.9985 4.22871 10.9647 4.3079 10.9032L4.3125 10.8996L4.31117 10.9005C4.34255 10.8785 4.37189 10.8532 4.39878 10.825L4.40634 10.817L7.83176 7.09595C8.05608 6.85228 8.05608 6.45718 7.83176 6.2135L7.82499 6.20627C7.6002 5.96991 7.24164 5.97231 7.0196 6.2135L4.50885 8.94095L4.50885 0.520672C4.50885 0.233104 4.29426 3.75278e-07 4.0296 3.52279e-07L3.96248 3.46411e-07C3.70148 0.00467532 3.49117 0.235978 3.49117 0.520672L3.49117 8.94097L0.980407 6.21351C0.75613 5.96986 0.392533 5.96986 0.168243 6.21351C-0.0560714 6.45716 -0.0560841 6.85227 0.168218 7.09595L3.59391 10.8173L3.60118 10.825C3.62562 10.8506 3.65209 10.8739 3.68029 10.8944L3.68748 10.8996L3.68617 10.8985C3.76849 10.9646 3.86815 11.0002 3.97046 11L4.02951 11Z" fill="black" fill-opacity="0.25"/>
</svg>
